<?xml version="1.0"?>
<svg width="640" height="480" xmlns="http://www.w3.org/2000/svg" xmlns:svg="http://www.w3.org/2000/svg">
 <!-- Created with SVG-edit - https://github.com/SVG-Edit/svgedit-->
 <defs>
  <symbol height="480" id="svg_25" width="640" xmlns="http://www.w3.org/2000/svg" xmlns:svg="http://www.w3.org/2000/svg">
   <!-- Created with SVG-edit - https://github.com/SVG-Edit/svgedit-->
   <g class="layer">
    <title>Layer 1</title>
    <polygon cx="200.37" cy="99.63" fill="none" id="svg_24" orient="point" point="3" points="NaN,NaN NaN,NaN NaN,NaN NaN,NaN NaN,NaN NaN,NaN NaN,NaN NaN,NaN " r="49.96" r2="16.65" radialshift="0" shape="star" starRadiusMultiplier="3" stroke="#000000" stroke-width="5"/>
    <polygon cx="193.7" cy="122.96" fill="none" id="svg_23" orient="point" point="3" points="193.70372406862344,-147.68314048059202 Infinity,-Infinity 428.0901291008347,258.28602163861547 Infinity,Infinity -40.68268096358781,258.2860216386156 -Infinity,-Infinity 193.70372406862336,-147.68314048059202 Infinity,-Infinity " r="270.65" r2="Infinity" radialshift="0" shape="star" starRadiusMultiplier="0" stroke="#000000" stroke-width="5"/>
    <polygon cx="233.7" cy="129.07" fill="none" id="svg_22" orient="point" point="3" points="233.70372287653058,-144.68887939614353 Infinity,-Infinity 470.7893990538928,265.95555748986993 Infinity,Infinity -3.3819533008316114,265.9555574898701 -Infinity,-Infinity 233.7037228765305,-144.68887939614353 Infinity,-Infinity " r="273.76" r2="Infinity" radialshift="0" shape="star" starRadiusMultiplier="0" stroke="#000000" stroke-width="5"/>
    <polygon cx="180.37" cy="188.52" fill="none" id="svg_21" orient="point" point="3" points="180.3703911326544,-99.45368560726473 Infinity,-Infinity 429.7616378122417,332.5046246047235 Infinity,Infinity -69.02085554693292,332.5046246047237 -Infinity,-Infinity 180.3703911326543,-99.45368560726473 Infinity,-Infinity " r="287.97" r2="Infinity" radialshift="0" shape="star" starRadiusMultiplier="0" stroke="#000000" stroke-width="5"/>
    <text fill="#000000" font-family="Sans-serif" font-size="24" id="svg_20" stroke="#000000" stroke-width="0" text-anchor="middle" x="260.37" xml:space="preserve" y="151.85"/>
    <text fill="#000000" font-family="Sans-serif" font-size="200" font-weight="bold" id="svg_19" stroke="#000000" stroke-width="0" text-anchor="middle" transform="matrix(1 0 0 1 70 177.222)" x="260.37" xml:space="preserve" y="151.3">B</text>
    <text fill="#000000" font-family="Sans-serif" font-size="200" font-weight="bold" id="svg_18" stroke="#000000" stroke-width="0" text-anchor="middle" transform="matrix(1 0 0 1 178.889 145.556)" x="151.48" xml:space="preserve" y="240.56">R</text>
    <text fill="#000000" font-family="Sans-serif" font-size="180" font-weight="bold" id="svg_17" stroke="#000000" stroke-width="0" text-anchor="middle" transform="matrix(1.07611 0.0266936 -0.0269899 1.06429 255.478 150.85)" x="143.7" xml:space="preserve" y="215">S</text>
    <text fill="#000000" font-family="Sans-serif" font-size="180" id="svg_16" stroke="#000000" stroke-width="0" text-anchor="middle" transform="matrix(0.154375 0 0 1 358.575 177.778)" x="175.37" xml:space="preserve" y="253.33">——</text>
   </g>
  </symbol>
 </defs>
 <g class="layer">
  <title>Layer 1</title>
  <polygon cx="200.37" cy="99.63" fill="none" id="svg_3" orient="point" point="3" points="NaN,NaN NaN,NaN NaN,NaN NaN,NaN NaN,NaN NaN,NaN NaN,NaN NaN,NaN " r="49.96" r2="16.65" radialshift="0" shape="star" starRadiusMultiplier="3" stroke="#000000" stroke-width="5"/>
  <polygon cx="193.7" cy="122.96" fill="none" id="svg_5" orient="point" point="3" points="193.70372406862344,-147.68314048059202 Infinity,-Infinity 428.0901291008347,258.28602163861547 Infinity,Infinity -40.68268096358781,258.2860216386156 -Infinity,-Infinity 193.70372406862336,-147.68314048059202 Infinity,-Infinity " r="270.65" r2="Infinity" radialshift="0" shape="star" starRadiusMultiplier="0" stroke="#000000" stroke-width="5"/>
  <polygon cx="233.7" cy="129.07" fill="none" id="svg_6" orient="point" point="3" points="233.70372287653058,-144.68887939614353 Infinity,-Infinity 470.7893990538928,265.95555748986993 Infinity,Infinity -3.3819533008316114,265.9555574898701 -Infinity,-Infinity 233.7037228765305,-144.68887939614353 Infinity,-Infinity " r="273.76" r2="Infinity" radialshift="0" shape="star" starRadiusMultiplier="0" stroke="#000000" stroke-width="5"/>
  <polygon cx="180.37" cy="188.52" fill="none" id="svg_7" orient="point" point="3" points="180.3703911326544,-99.45368560726473 Infinity,-Infinity 429.7616378122417,332.5046246047235 Infinity,Infinity -69.02085554693292,332.5046246047237 -Infinity,-Infinity 180.3703911326543,-99.45368560726473 Infinity,-Infinity " r="287.97" r2="Infinity" radialshift="0" shape="star" starRadiusMultiplier="0" stroke="#000000" stroke-width="5"/>
  <text fill="#000000" font-family="Sans-serif" font-size="24" id="svg_11" stroke="#000000" stroke-width="0" text-anchor="middle" transform="matrix(1 0 0 1 -30.2457 -39.6975)" x="260.37" xml:space="preserve" y="151.85"/>
  <text fill="#000000" font-family="Sans-serif" font-size="200" font-weight="bold" id="svg_12" stroke="#000000" stroke-width="0" text-anchor="middle" transform="matrix(1 0 0 1 39.7543 137.525)" x="260.37" xml:space="preserve" y="151.3"/>
  <text fill="#000000" font-family="Sans-serif" font-size="200" font-weight="bold" id="svg_13" stroke="#000000" stroke-width="0" text-anchor="middle" transform="matrix(1 0 0 1 148.643 105.858)" x="151.48" xml:space="preserve" y="240.56"/>
  <text fill="#000000" font-family="Sans-serif" font-size="180" font-weight="bold" id="svg_14" stroke="#000000" stroke-width="0" text-anchor="middle" transform="matrix(1.07611 0.0266936 -0.0269899 1.06429 225.232 111.152)" x="143.7" xml:space="preserve" y="215"/>
  <text fill="#000000" font-family="Sans-serif" font-size="180" id="svg_15" stroke="#000000" stroke-width="0" text-anchor="middle" transform="matrix(0.154375 0 0 1 328.33 138.08)" x="175.37" xml:space="preserve" y="253.33"/>
  <use href="#svg_25" id="svg_26" transform="matrix(3.59267 0 0 2.31933 -1006.04 -416.725)"/>
 </g>
</svg>